<svg id="Layer_1" data-name="Layer 1" xmlns="http://www.w3.org/2000/svg" viewBox="0 0 184 74"><defs><style>.cls-1{fill:#bf2235;}.cls-2{fill:#fff;}</style></defs><title>Thalys-Cartouche-New-Site</title><rect class="cls-1" x="2.31" y="8.15" width="179.14" height="56.63" transform="translate(-2.81 8.08) rotate(-4.96)"/><path class="cls-2" d="M128.78,20.21a8.57,8.57,0,0,0-5-3.68c-2.47-.72-5.37-.44-8.7.81A31.81,31.81,0,0,0,111.52,19c-1.74.88-2.9,1.5-3.47,1.86a12.32,12.32,0,0,1-5.44,1.71A2.37,2.37,0,0,0,103.7,24a4.55,4.55,0,0,0,2.13.7,11.48,11.48,0,0,0,6.24-1.4,23.76,23.76,0,0,0,3.51-2.22,25.18,25.18,0,0,1,3.12-2c2.21-1.1,4-1.39,5.46-.84a4,4,0,0,1,1.69,1.51,5.06,5.06,0,0,1,.87,2.33l.08.88a1.52,1.52,0,0,0,.33.82l1.4,1.82a.72.72,0,0,1,.17.43l-.22.22-.37.19c-.15.07-.21.25-.19.51l.2,2.29a.9.9,0,0,1-.32.78,1.43,1.43,0,0,1-.87.36l-3.2.12,1.79,2.17a2.83,2.83,0,0,0,.91.6,2.33,2.33,0,0,0,1.16.23l25.15-2.18-.19-.32-22.81-.43c-.16,0-.26,0-.29-.08s0-.15.1-.34a7.13,7.13,0,0,0,.95-4.51,11.2,11.2,0,0,0-1.72-5.47"/><path class="cls-2" d="M163.83,32.18l-.24-.42c-3.35.22-8.16.84-14.38,1.87q-10.53,1.77-21.48,4.27-12.95,3-23.54,6.45a127.8,127.8,0,0,0-20.45,8.3L86,54.55a1.77,1.77,0,0,0,1.1.49,3.28,3.28,0,0,0,1.43-.51,113,113,0,0,1,15.9-7.07c6-2.23,12.72-4.42,20.17-6.54q10.41-3,21-5.29c6.83-1.53,12.92-2.68,18.23-3.45"/><path class="cls-2" d="M120.12,33.16a2.36,2.36,0,0,0-1.06-.59,3.69,3.69,0,0,0-1.67.12,33.42,33.42,0,0,0-7.58,3.07L111.35,37a2.11,2.11,0,0,0,1.07.12L117.83,36l4.56-.88Z"/><path class="cls-2" d="M90,27.52a4.13,4.13,0,0,1,1.54.12l.19.17.3,1.6a1.09,1.09,0,0,0,.63-.23,1.21,1.21,0,0,0,.17-.62l.06-1.71a8.58,8.58,0,0,0-2.81-.25,3.87,3.87,0,0,0-2.5,1,3,3,0,0,0-.68,1.07,2.74,2.74,0,0,0-.19,1.18,1.88,1.88,0,0,0,.8,1.43l2.65,1.25a2.55,2.55,0,0,1,.81.42,1.49,1.49,0,0,1,.2,2.33,2.27,2.27,0,0,1-1.45.57l-1,0-.79-.16a3.79,3.79,0,0,1-.29-1.3L87.58,34a.92.92,0,0,0-.6.21c-.12.09-.15.3-.18.64l-.13,1.77a8.21,8.21,0,0,0,2.72.28,4.61,4.61,0,0,0,2.82-1.18,2.81,2.81,0,0,0,.91-2.4,1.76,1.76,0,0,0-.45-1.23,3.93,3.93,0,0,0-1.4-.89l-1.93-.87L88.6,30a1.12,1.12,0,0,1-.46-.84,1.21,1.21,0,0,1,.45-1.1,2.06,2.06,0,0,1,1.38-.5"/><path class="cls-2" d="M81.7,27.61l-1.8.16L79.43,29l-1.86,3.84-1.95-4.25-.14-.41-2.08.24a.51.51,0,0,0-.34.21l-.29.59,1.09,0L76.32,34l0,1.27a12.65,12.65,0,0,1-.18,2.06l-.2.69,2.15-.19a1.13,1.13,0,0,0,.73-.27,1.21,1.21,0,0,0,.29-.59L77.75,37l.3-3.18Z"/><path class="cls-2" d="M65.19,29.18v-.11l-2.66.28a.5.5,0,0,0-.35.22l-.26.59.39-.06h1a13.12,13.12,0,0,0-.12,1.9l-.16,4.44c-.06.86-.13,1.56-.21,2.06l-.2.69L64,39h.15l4.42-.38.28-2.74a1.32,1.32,0,0,0-.71.19,1.51,1.51,0,0,0-.28.59l-.45,1L66.19,38l-1.57.11a22.11,22.11,0,0,0,.25-2.76Z"/><path class="cls-2" d="M52.47,31.21l1,4-2.62.23Zm3.93,8.51a1.06,1.06,0,0,0,.7-.26,2,2,0,0,0,.28-.6l-1.11,0L53.72,30l-2.18.22-.71.16a1.13,1.13,0,0,0-.49.62l0,.13L51.58,31l-3.47,8.32-.63,1.17,1.7-.15,1.38-4,3.11-.27L54,37.21a14.63,14.63,0,0,1,.5,2.29v.39Z"/><path class="cls-2" d="M39.74,32.08,41.08,32l-.21,3.59L36.48,36l.23-4.45-2,.2A1,1,0,0,0,34,32l-.26.59L35,32.52l-.44,8.11-.27,1,2.16-.19a1.06,1.06,0,0,0,.7-.27,1.62,1.62,0,0,0,.31-.59l-1.34.06.26-3.83,4.45-.38-.28,3.65-.22,1,2.15-.19a1.07,1.07,0,0,0,.71-.27,3,3,0,0,0,.28-.59l-1.31.06.09-.71.39-8,.07-.41-2.41.28a.55.55,0,0,0-.37.22,1.44,1.44,0,0,0-.23.58"/><path class="cls-2" d="M28.37,33.18a3.88,3.88,0,0,1,.27,1.32l.09.43a1.26,1.26,0,0,0,.6-.21,1,1,0,0,0,.2-.64l.09-1.95-8.37.73L21,35.6c.39-.06.61-.13.68-.22s.19-.27.31-.59l.16-.56c.1-.35.22-.54.34-.55l1.95-.24-.24,6.23a13.72,13.72,0,0,1-.15,1.77,3.88,3.88,0,0,1-.37,1.12l2.44-.21a1,1,0,0,0,.73-.27l.26-.59-1.42.07.12-.74.35-7.56Z"/></svg>