<svg width="152" height="40" fill="none" xmlns="http://www.w3.org/2000/svg"><path fill-rule="evenodd" clip-rule="evenodd" d="M39.15 20.92a6.86 6.86 0 0 1 6.94 6.75 6.86 6.86 0 0 1-6.94 6.76 6.86 6.86 0 0 1-6.95-6.76 6.86 6.86 0 0 1 6.95-6.75m67.04 0c.82 0 1.62.13 2.37.4l-8.66 9.21a6.56 6.56 0 0 1-.65-2.86 6.86 6.86 0 0 1 6.94-6.75M12.66 40c3.5 0 6.75-1.36 9.16-3.82l-.41-.4.43.38 5.06-5.42A12.61 12.61 0 0 0 39.15 40c3.7 0 7.04-1.57 9.36-4.06l.01.01 12.72-13.6a4.73 4.73 0 0 1 6.52-.28 4.43 4.43 0 0 1 .33 6.34l-.96 1.04-9.55 10.2h7.73l3.33-3.55 1.63-1.75 2.03-2.16.02-.03 9.07-9.7a4.68 4.68 0 0 1 6.49-.25 4.43 4.43 0 0 1 .37 6.3L77.83 39.65h7.73l3.4-3.63 3.45-3.7v.01l.06-.07 1.47-1.56a12.61 12.61 0 0 0 12.25 9.3c3.5 0 6.75-1.36 9.16-3.82l-.68-.68.73.63 5.01-5.48A12.61 12.61 0 0 0 132.68 40v-5.57a6.86 6.86 0 0 1-6.94-6.76V20.7h6.94v-5.57h-6.94V5.6h-5.72v17.12l-8.89 9.72a6.97 6.97 0 0 1-6.89 1.73l12.7-13.54-2.02-1.88a12.79 12.79 0 0 0-8.73-3.4c-3.82 0-7.24 1.67-9.56 4.29l-.04-.04-2.19 2.34a10 10 0 0 0-2.68-3.83 10.47 10.47 0 0 0-7.45-2.61 10.4 10.4 0 0 0-6.71 2.84h-.01l-.18.18-.16.15-.07.08-.03.03-2.82 3.01a10 10 0 0 0-2.68-3.83 10.45 10.45 0 0 0-7.45-2.6 10.4 10.4 0 0 0-7.06 3.17l-.08.08-.03.03-5.6 5.98a12.61 12.61 0 0 0-12.24-9.26c-3.87 0-7.33 1.7-9.65 4.36l-4.54 4.84-4.77 5.1-2.58 2.76a6.97 6.97 0 0 1-4.95 2.02 6.86 6.86 0 0 1-6.94-6.76 6.86 6.86 0 0 1 6.94-6.75 7 7 0 0 1 6.37 4.07l4.04-4.32a12.82 12.82 0 0 0-10.41-5.32C5.68 15.35 0 20.88 0 27.67 0 34.47 5.68 40 12.66 40M144.82 4.63a8.59 8.59 0 0 0 2.43 2.36 8.58 8.58 0 0 0-2.43 2.36A8.56 8.56 0 0 0 142.4 7a8.57 8.57 0 0 0 2.43-2.36m-1.44 9.35h2.88c0-3.08 2.57-5.6 5.74-5.6V5.6A5.68 5.68 0 0 1 146.26 0h-2.88c0 3.08-2.57 5.6-5.74 5.6v2.79c3.17 0 5.75 2.5 5.75 5.59" fill="#FFF"/></svg>
