<?xml version="1.0" encoding="UTF-8" standalone="no"?>
<svg width="260px" height="50px" viewBox="0 0 260 50" version="1.1" xmlns="http://www.w3.org/2000/svg" xmlns:xlink="http://www.w3.org/1999/xlink">
    <!-- Generator: Sketch 48.2 (47327) - http://www.bohemiancoding.com/sketch -->
    <title>logo_light</title>
    <desc>Created with Sketch.</desc>
    <defs>
        <polygon id="path-1" points="13.5023344 14.0536424 18.3980503 14.0536424 23.2937661 21.9416234 18.3980503 29.8050759 13.9280489 29.8050759 19.071128 21.9139769"></polygon>
        <filter x="-168.5%" y="-60.3%" width="477.9%" height="334.9%" filterUnits="objectBoundingBox" id="filter-2">
            <feOffset dx="1" dy="6" in="SourceAlpha" result="shadowOffsetOuter1"></feOffset>
            <feGaussianBlur stdDeviation="3.5" in="shadowOffsetOuter1" result="shadowBlurOuter1"></feGaussianBlur>
            <feColorMatrix values="0 0 0 0 1   0 0 0 0 1   0 0 0 0 1  0 0 0 0.0978826993 0" type="matrix" in="shadowBlurOuter1" result="shadowMatrixOuter1"></feColorMatrix>
            <feOffset dx="1" dy="2" in="SourceAlpha" result="shadowOffsetOuter2"></feOffset>
            <feGaussianBlur stdDeviation="1.5" in="shadowOffsetOuter2" result="shadowBlurOuter2"></feGaussianBlur>
            <feColorMatrix values="0 0 0 0 1   0 0 0 0 1   0 0 0 0 1  0 0 0 0.101081295 0" type="matrix" in="shadowBlurOuter2" result="shadowMatrixOuter2"></feColorMatrix>
            <feOffset dx="0" dy="1" in="SourceAlpha" result="shadowOffsetOuter3"></feOffset>
            <feGaussianBlur stdDeviation="1" in="shadowOffsetOuter3" result="shadowBlurOuter3"></feGaussianBlur>
            <feColorMatrix values="0 0 0 0 1   0 0 0 0 1   0 0 0 0 1  0 0 0 0.0978826993 0" type="matrix" in="shadowBlurOuter3" result="shadowMatrixOuter3"></feColorMatrix>
            <feMerge>
                <feMergeNode in="shadowMatrixOuter1"></feMergeNode>
                <feMergeNode in="shadowMatrixOuter2"></feMergeNode>
                <feMergeNode in="shadowMatrixOuter3"></feMergeNode>
            </feMerge>
        </filter>
        <rect id="path-3" x="23.7194805" y="14.0536424" width="3.61857256" height="15.7514335"></rect>
        <filter x="-456.0%" y="-60.3%" width="1122.5%" height="334.9%" filterUnits="objectBoundingBox" id="filter-4">
            <feOffset dx="1" dy="6" in="SourceAlpha" result="shadowOffsetOuter1"></feOffset>
            <feGaussianBlur stdDeviation="3.5" in="shadowOffsetOuter1" result="shadowBlurOuter1"></feGaussianBlur>
            <feColorMatrix values="0 0 0 0 1   0 0 0 0 1   0 0 0 0 1  0 0 0 0.0978826993 0" type="matrix" in="shadowBlurOuter1" result="shadowMatrixOuter1"></feColorMatrix>
            <feOffset dx="1" dy="2" in="SourceAlpha" result="shadowOffsetOuter2"></feOffset>
            <feGaussianBlur stdDeviation="1.5" in="shadowOffsetOuter2" result="shadowBlurOuter2"></feGaussianBlur>
            <feColorMatrix values="0 0 0 0 1   0 0 0 0 1   0 0 0 0 1  0 0 0 0.101081295 0" type="matrix" in="shadowBlurOuter2" result="shadowMatrixOuter2"></feColorMatrix>
            <feOffset dx="0" dy="1" in="SourceAlpha" result="shadowOffsetOuter3"></feOffset>
            <feGaussianBlur stdDeviation="1" in="shadowOffsetOuter3" result="shadowBlurOuter3"></feGaussianBlur>
            <feColorMatrix values="0 0 0 0 1   0 0 0 0 1   0 0 0 0 1  0 0 0 0.0978826993 0" type="matrix" in="shadowBlurOuter3" result="shadowMatrixOuter3"></feColorMatrix>
            <feMerge>
                <feMergeNode in="shadowMatrixOuter1"></feMergeNode>
                <feMergeNode in="shadowMatrixOuter2"></feMergeNode>
                <feMergeNode in="shadowMatrixOuter3"></feMergeNode>
            </feMerge>
        </filter>
        <circle id="path-5" cx="21.5" cy="21.5" r="21.5"></circle>
        <filter x="-39.4%" y="-23.1%" width="188.1%" height="188.1%" filterUnits="objectBoundingBox" id="filter-6">
            <feMorphology radius="0.448" operator="dilate" in="SourceAlpha" result="shadowSpreadOuter1"></feMorphology>
            <feOffset dx="1" dy="6" in="shadowSpreadOuter1" result="shadowOffsetOuter1"></feOffset>
            <feMorphology radius="1" operator="erode" in="SourceAlpha" result="shadowInner"></feMorphology>
            <feOffset dx="1" dy="6" in="shadowInner" result="shadowInner"></feOffset>
            <feComposite in="shadowOffsetOuter1" in2="shadowInner" operator="out" result="shadowOffsetOuter1"></feComposite>
            <feGaussianBlur stdDeviation="3.5" in="shadowOffsetOuter1" result="shadowBlurOuter1"></feGaussianBlur>
            <feColorMatrix values="0 0 0 0 1   0 0 0 0 1   0 0 0 0 1  0 0 0 0.1 0" type="matrix" in="shadowBlurOuter1" result="shadowMatrixOuter1"></feColorMatrix>
            <feMorphology radius="0.448" operator="dilate" in="SourceAlpha" result="shadowSpreadOuter2"></feMorphology>
            <feOffset dx="1" dy="2" in="shadowSpreadOuter2" result="shadowOffsetOuter2"></feOffset>
            <feMorphology radius="1" operator="erode" in="SourceAlpha" result="shadowInner"></feMorphology>
            <feOffset dx="1" dy="2" in="shadowInner" result="shadowInner"></feOffset>
            <feComposite in="shadowOffsetOuter2" in2="shadowInner" operator="out" result="shadowOffsetOuter2"></feComposite>
            <feGaussianBlur stdDeviation="1.5" in="shadowOffsetOuter2" result="shadowBlurOuter2"></feGaussianBlur>
            <feColorMatrix values="0 0 0 0 1   0 0 0 0 1   0 0 0 0 1  0 0 0 0.1 0" type="matrix" in="shadowBlurOuter2" result="shadowMatrixOuter2"></feColorMatrix>
            <feMorphology radius="0.448" operator="dilate" in="SourceAlpha" result="shadowSpreadOuter3"></feMorphology>
            <feOffset dx="0" dy="1" in="shadowSpreadOuter3" result="shadowOffsetOuter3"></feOffset>
            <feMorphology radius="1" operator="erode" in="SourceAlpha" result="shadowInner"></feMorphology>
            <feOffset dx="0" dy="1" in="shadowInner" result="shadowInner"></feOffset>
            <feComposite in="shadowOffsetOuter3" in2="shadowInner" operator="out" result="shadowOffsetOuter3"></feComposite>
            <feGaussianBlur stdDeviation="1" in="shadowOffsetOuter3" result="shadowBlurOuter3"></feGaussianBlur>
            <feColorMatrix values="0 0 0 0 1   0 0 0 0 1   0 0 0 0 1  0 0 0 0.1 0" type="matrix" in="shadowBlurOuter3" result="shadowMatrixOuter3"></feColorMatrix>
            <feMerge>
                <feMergeNode in="shadowMatrixOuter1"></feMergeNode>
                <feMergeNode in="shadowMatrixOuter2"></feMergeNode>
                <feMergeNode in="shadowMatrixOuter3"></feMergeNode>
            </feMerge>
        </filter>
    </defs>
    <g id="Symbols" stroke="none" stroke-width="1" fill="none" fill-rule="evenodd">
        <g id="logo_light">
            <g id="logo-inverted" transform="translate(2.000000, 4.000000)">
                <g id="Group-2-Copy-2">
                    <g id="Rectangle-3">
                        <use fill="black" fill-opacity="1" filter="url(#filter-2)" xlink:href="#path-1"></use>
                        <use fill="#FFFFFF" fill-rule="evenodd" xlink:href="#path-1"></use>
                    </g>
                    <g id="Rectangle-4">
                        <use fill="black" fill-opacity="1" filter="url(#filter-4)" xlink:href="#path-3"></use>
                        <use fill="#FFFFFF" fill-rule="evenodd" xlink:href="#path-3"></use>
                    </g>
                    <g id="Oval-4">
                        <use fill="black" fill-opacity="1" filter="url(#filter-6)" xlink:href="#path-5"></use>
                        <use stroke="#FFFFFF" stroke-width="0.896" xlink:href="#path-5"></use>
                    </g>
                </g>
            </g>
            <g id="Group-13" transform="translate(54.000000, 18.000000)">
                <path d="M2.61676371,14 L0.655337927,14 L0.655337927,1.00317383 L8.52960551,1.00317383 L8.52960551,2.69799805 L2.61676371,2.69799805 L2.61676371,6.85888672 L8.03448832,6.85888672 L8.03448832,8.53466797 L2.61676371,8.53466797 L2.61676371,14 Z M16.0826817,1.00317383 C19.0343418,1.00317383 20.3863926,2.83129883 20.3863926,4.95458984 C20.3863926,7.08740234 19.0724277,8.18237305 17.9869785,8.58227539 L20.6244297,14 L18.4059238,14 L16.0445957,8.93457031 L13.1691074,8.93457031 L13.1691074,14 L11.2267246,14 L11.2267246,1.00317383 L16.0826817,1.00317383 Z M13.1691074,7.32543945 L15.7589512,7.32543945 C17.4537754,7.32543945 18.3583164,6.5065918 18.3583164,5.0402832 C18.3583164,3.4597168 17.3395176,2.65039062 15.8160801,2.65039062 L13.1691074,2.65039062 L13.1691074,7.32543945 Z M31.5481113,12.3146973 L31.5481113,14 L23.5691074,14 L23.5691074,1.00317383 L31.5481113,1.00317383 L31.5481113,2.68847656 L25.5210117,2.68847656 L25.5210117,6.57324219 L31.2053379,6.57324219 L31.2053379,8.19189453 L25.5210117,8.19189453 L25.5210117,12.3146973 L31.5481113,12.3146973 Z M42.7383945,12.3146973 L42.7383945,14 L34.7593906,14 L34.7593906,1.00317383 L42.7383945,1.00317383 L42.7383945,2.68847656 L36.7112949,2.68847656 L36.7112949,6.57324219 L42.3956211,6.57324219 L42.3956211,8.19189453 L36.7112949,8.19189453 L36.7112949,12.3146973 L42.7383945,12.3146973 Z M53.738248,12.2766113 L53.738248,14 L45.9496738,14 L45.9496738,1.00317383 L47.9110996,1.00317383 L47.9110996,12.2766113 L53.738248,12.2766113 Z M57.435123,14 L55.4451327,14 L59.9773593,1.00317383 L62.1006503,1.00317383 L66.6328769,14 L64.5286288,14 L63.3194003,10.2770996 L58.653873,10.2770996 L57.435123,14 Z M61.0247226,3.13598633 L60.9580722,3.13598633 L59.1204257,8.75366211 L62.8528476,8.75366211 L61.0247226,3.13598633 Z M70.843912,14 L68.996744,14 L68.996744,1.00317383 L70.7772616,1.00317383 L77.0995272,10.657959 L77.1566561,10.657959 L77.1566561,1.00317383 L79.0133456,1.00317383 L79.0133456,14 L77.232828,14 L70.9010409,4.32617188 L70.843912,4.32617188 L70.843912,14 Z M84.1194003,6.72558594 L84.1194003,8.35375977 C84.1194003,11.2578125 85.4238436,12.5527344 87.4043124,12.5527344 C89.3371737,12.5527344 90.3369296,11.3244629 90.3369296,9.9152832 L92.2507479,9.9152832 L92.2507479,10.0200195 C92.2507479,12.0004883 90.6701815,14.2666016 87.3471835,14.2666016 C84.1479647,14.2666016 82.148453,12.2099609 82.148453,8.36328125 L82.148453,6.70654297 C82.148453,2.8503418 84.1765292,0.736572266 87.3567049,0.736572266 C90.5464022,0.736572266 92.2507479,2.95507812 92.2507479,5.18310547 L92.2507479,5.27832031 L90.3369296,5.27832031 C90.3369296,3.88818359 89.3086092,2.45043945 87.3662264,2.45043945 C85.4428866,2.45043945 84.1194003,3.84057617 84.1194003,6.72558594 Z M103.279166,12.3146973 L103.279166,14 L95.300162,14 L95.300162,1.00317383 L103.279166,1.00317383 L103.279166,2.68847656 L97.2520663,2.68847656 L97.2520663,6.57324219 L102.936392,6.57324219 L102.936392,8.19189453 L97.2520663,8.19189453 L97.2520663,12.3146973 L103.279166,12.3146973 Z" id="Freelance" fill="#FFFFFF"></path>
                <path d="M113.360352,1.00317383 C116.312012,1.00317383 117.664062,2.83129883 117.664062,4.95458984 C117.664062,7.08740234 116.350098,8.18237305 115.264648,8.58227539 L117.9021,14 L115.683594,14 L113.322266,8.93457031 L110.446777,8.93457031 L110.446777,14 L108.504395,14 L108.504395,1.00317383 L113.360352,1.00317383 Z M110.446777,7.32543945 L113.036621,7.32543945 C114.731445,7.32543945 115.635986,6.5065918 115.635986,5.0402832 C115.635986,3.4597168 114.617188,2.65039062 113.09375,2.65039062 L110.446777,2.65039062 L110.446777,7.32543945 Z M128.825781,12.3146973 L128.825781,14 L120.846777,14 L120.846777,1.00317383 L128.825781,1.00317383 L128.825781,2.68847656 L122.798682,2.68847656 L122.798682,6.57324219 L128.483008,6.57324219 L128.483008,8.19189453 L122.798682,8.19189453 L122.798682,12.3146973 L128.825781,12.3146973 Z M132.03706,1.00317383 L136.921582,1.00317383 C139.501904,1.00317383 141.1396,2.71704102 141.1396,5.14501953 C141.1396,7.59204102 139.492383,9.26782227 136.91206,9.26782227 L133.988965,9.26782227 L133.988965,14 L132.03706,14 L132.03706,1.00317383 Z M133.988965,2.66943359 L133.988965,7.62060547 L135.81709,7.62060547 C137.902295,7.62060547 139.130566,7.15405273 139.130566,5.14501953 C139.130566,3.56445312 138.226025,2.66943359 136.674023,2.66943359 L133.988965,2.66943359 Z M145.569629,1.00317383 L145.569629,9.39160156 C145.569629,11.3435059 146.788379,12.5432129 148.65459,12.5432129 C150.520801,12.5432129 151.749072,11.3339844 151.749072,9.39160156 L151.749072,1.00317383 L153.691455,1.00317383 L153.691455,9.65820312 C153.691455,12.3623047 151.806201,14.2666016 148.65459,14.2666016 C145.5125,14.2666016 143.627246,12.3623047 143.627246,9.65820312 L143.627246,1.00317383 L145.569629,1.00317383 Z M157.1979,14 L157.1979,1.00317383 L162.253808,1.00317383 C164.44375,1.00317383 165.938623,2.18383789 165.938623,4.20239258 C165.938623,5.80200195 165.034082,6.71606445 163.80581,7.06835938 L163.80581,7.15405273 C165.557764,7.37304688 166.652734,8.55371094 166.652734,10.3532715 C166.652734,12.7336426 164.738916,14 162.120508,14 L157.1979,14 Z M159.149805,2.61230469 L159.149805,6.53515625 L161.04458,6.53515625 C162.986963,6.53515625 163.977197,5.93530273 163.977197,4.53564453 C163.977197,3.20263672 163.072656,2.61230469 161.872949,2.61230469 L159.149805,2.61230469 Z M159.149805,8.0871582 L159.149805,12.3908691 L161.292139,12.3908691 C163.244043,12.3908691 164.653223,12.0004883 164.653223,10.3056641 C164.653223,8.8203125 163.615381,8.0871582 162.053857,8.0871582 L159.149805,8.0871582 Z M177.385986,12.2766113 L177.385986,14 L169.597412,14 L169.597412,1.00317383 L171.558838,1.00317383 L171.558838,12.2766113 L177.385986,12.2766113 Z M181.720801,14 L179.759375,14 L179.759375,1.00317383 L181.720801,1.00317383 L181.720801,14 Z M195.072461,1.00317383 L190.292676,6.55419922 L195.310498,14 L192.872998,14 L188.84541,7.89672852 L187.331494,9.56298828 L187.331494,14 L185.370068,14 L185.370068,1.00317383 L187.331494,1.00317383 L187.331494,7.13500977 L187.417187,7.13500977 L192.82539,1.00317383 L195.072461,1.00317383 Z" id="republik" fill="#FFFFFF"></path>
                <g id="Group-2-Copy" transform="translate(194.000000, 6.000000)"></g>
            </g>
        </g>
    </g>
</svg>