<?xml version="1.0" encoding="UTF-8" standalone="no"?>
<!DOCTYPE svg PUBLIC "-//W3C//DTD SVG 1.1//EN" "http://www.w3.org/Graphics/SVG/1.1/DTD/svg11.dtd">
<svg version="1.1" xmlns="http://www.w3.org/2000/svg" xmlns:xlink="http://www.w3.org/1999/xlink" preserveAspectRatio="xMidYMid meet" viewBox="104.88901787787323 259.15695379614584 489.624332482006 173.7552820989087" width="485.62" height="169.76"><defs><path d="M144.55 294.97L120.09 294.97L120.09 314.01L105.89 314.01L105.89 261.65L146.42 261.65L146.42 274.28L120.09 274.28L120.09 282.32L144.55 282.32L144.55 294.97Z" id="ex6nQABxb"></path><path d="M176.14 289.62C174.24 289.09 172.29 288.8 170.31 288.75C166.6 288.75 164.37 290.07 164.37 294.14C164.37 295.47 164.37 302.09 164.37 314.01L151 314.01L151 276.94L163.71 276.94C163.71 279.17 163.71 280.41 163.71 280.66C165.77 277.36 169.02 275.9 173.54 275.9C174.67 275.92 175.79 276.06 176.89 276.31C176.74 278.97 176.22 288.29 176.14 289.62Z" id="aGW5SflPr"></path><path d="M199.96 276L200.93 276.11L201.88 276.26L202.8 276.45L203.7 276.68L204.58 276.95L205.44 277.26L206.27 277.6L207.07 277.99L207.85 278.41L208.61 278.86L209.33 279.35L210.02 279.88L210.69 280.44L211.33 281.03L211.94 281.65L212.51 282.31L213.05 283L213.57 283.71L214.04 284.46L214.49 285.23L214.9 286.03L215.27 286.86L215.61 287.72L215.91 288.6L216.18 289.51L216.41 290.44L216.6 291.39L216.74 292.37L216.85 293.37L216.92 294.39L216.95 295.43L216.95 295.55L216.95 295.67L216.95 295.8L216.95 295.92L216.95 296.04L216.94 296.16L216.94 296.28L216.94 296.4L216.93 296.52L216.93 296.64L216.92 296.76L216.92 296.88L216.91 297L216.91 297.12L216.9 297.24L216.89 297.36L216.88 297.48L216.87 297.6L216.87 297.72L216.86 297.84L216.85 297.96L216.83 298.08L216.82 298.2L216.81 298.32L216.8 298.44L216.79 298.56L216.77 298.68L216.76 298.8L216.74 298.92L216.73 299.04L216.71 299.16L216.7 299.28L216.68 299.4L192.43 299.4L192.52 299.67L192.61 299.92L192.71 300.17L192.82 300.42L192.93 300.65L193.05 300.87L193.18 301.09L193.32 301.3L193.47 301.5L193.62 301.69L193.78 301.88L193.94 302.05L194.12 302.22L194.3 302.38L194.49 302.53L194.68 302.68L194.88 302.81L195.1 302.94L195.31 303.06L195.54 303.17L195.77 303.27L196.01 303.36L196.26 303.45L196.51 303.53L196.77 303.6L197.04 303.66L197.31 303.71L197.6 303.76L197.89 303.79L198.18 303.82L198.49 303.84L198.8 303.85L199.12 303.86L199.36 303.85L199.59 303.84L199.83 303.82L200.07 303.8L200.3 303.77L200.54 303.73L200.77 303.69L201 303.65L201.23 303.6L201.46 303.54L201.69 303.48L201.91 303.41L202.13 303.34L202.36 303.27L202.58 303.18L202.79 303.1L203.01 303.01L203.22 302.91L203.43 302.81L203.64 302.7L203.85 302.59L204.05 302.47L204.26 302.35L204.46 302.23L204.65 302.1L204.84 301.96L205.03 301.82L205.22 301.68L205.41 301.53L205.59 301.37L205.76 301.22L205.94 301.05L206.11 300.89L215.23 308.52L214.9 308.87L214.56 309.21L214.2 309.54L213.83 309.87L213.45 310.19L213.06 310.5L212.65 310.8L212.24 311.09L211.81 311.37L211.37 311.65L210.92 311.91L210.46 312.17L209.99 312.41L209.51 312.65L209.02 312.87L208.52 313.08L208 313.29L207.48 313.48L206.94 313.66L206.4 313.83L205.85 313.99L205.28 314.14L204.71 314.28L204.13 314.4L203.54 314.51L202.94 314.61L202.33 314.7L201.71 314.77L201.08 314.83L200.44 314.88L199.8 314.92L199.14 314.94L198.48 314.94L197.41 314.92L196.37 314.86L195.35 314.76L194.35 314.61L193.38 314.43L192.43 314.2L191.51 313.94L190.61 313.64L189.74 313.31L188.9 312.93L188.08 312.52L187.3 312.08L186.54 311.6L185.82 311.09L185.13 310.54L184.46 309.96L183.84 309.35L183.24 308.71L182.68 308.04L182.15 307.33L181.65 306.6L181.19 305.84L180.77 305.05L180.39 304.24L180.04 303.39L179.73 302.52L179.46 301.63L179.23 300.71L179.04 299.77L178.89 298.8L178.79 297.81L178.72 296.8L178.7 295.77L178.72 294.71L178.79 293.67L178.89 292.66L179.04 291.66L179.23 290.69L179.45 289.75L179.72 288.83L180.02 287.93L180.37 287.06L180.74 286.21L181.16 285.4L181.61 284.61L182.09 283.85L182.61 283.12L183.16 282.42L183.75 281.75L184.36 281.12L185.01 280.52L185.69 279.95L186.4 279.41L187.13 278.91L187.9 278.45L188.69 278.02L189.51 277.63L190.35 277.27L191.22 276.96L192.12 276.69L193.03 276.45L193.98 276.26L194.94 276.11L195.93 276L196.93 275.93L197.96 275.91L198.97 275.93L199.96 276ZM195.16 287.77L194.03 288.63L193.14 289.82L192.5 291.38L193.56 291.37L196.11 291.37L199.26 291.37L202.08 291.36L203.67 291.36L202.98 289.81L202.07 288.62L200.95 287.77L199.61 287.26L198.06 287.1L196.51 287.27L195.16 287.77Z" id="c4I034Nfsx"></path><path d="M241.37 276L242.33 276.11L243.28 276.26L244.2 276.45L245.1 276.68L245.98 276.95L246.83 277.26L247.66 277.6L248.47 277.99L249.24 278.41L249.99 278.86L250.72 279.35L251.41 279.88L252.07 280.44L252.71 281.03L253.31 281.65L253.89 282.31L254.43 283L254.94 283.71L255.42 284.46L255.86 285.23L256.27 286.03L256.64 286.86L256.98 287.72L257.28 288.6L257.54 289.51L257.77 290.44L257.95 291.39L258.1 292.37L258.21 293.37L258.27 294.39L258.3 295.43L258.3 295.55L258.3 295.67L258.29 295.8L258.29 295.92L258.29 296.04L258.29 296.16L258.29 296.28L258.28 296.4L258.28 296.52L258.28 296.64L258.27 296.76L258.26 296.88L258.26 297L258.25 297.12L258.25 297.24L258.24 297.36L258.23 297.48L258.22 297.6L258.21 297.72L258.2 297.84L258.19 297.96L258.18 298.08L258.17 298.2L258.16 298.32L258.15 298.44L258.14 298.56L258.12 298.68L258.11 298.8L258.1 298.92L258.08 299.04L258.07 299.16L258.05 299.28L258.04 299.4L233.84 299.4L233.93 299.67L234.02 299.92L234.12 300.17L234.23 300.42L234.35 300.65L234.47 300.87L234.6 301.09L234.73 301.3L234.88 301.5L235.03 301.69L235.19 301.88L235.36 302.05L235.53 302.22L235.71 302.38L235.9 302.53L236.1 302.68L236.3 302.81L236.51 302.94L236.73 303.06L236.95 303.17L237.18 303.27L237.42 303.36L237.67 303.45L237.92 303.53L238.18 303.6L238.45 303.66L238.73 303.71L239.01 303.76L239.3 303.79L239.6 303.82L239.9 303.84L240.21 303.85L240.53 303.86L240.77 303.85L241.01 303.84L241.24 303.82L241.48 303.8L241.72 303.77L241.95 303.73L242.18 303.69L242.41 303.65L242.64 303.6L242.87 303.54L243.1 303.48L243.32 303.41L243.55 303.34L243.77 303.27L243.99 303.18L244.21 303.1L244.42 303.01L244.64 302.91L244.85 302.81L245.06 302.7L245.26 302.59L245.47 302.47L245.67 302.35L245.87 302.23L246.06 302.1L246.26 301.96L246.45 301.82L246.64 301.68L246.82 301.53L247 301.37L247.18 301.22L247.35 301.05L247.52 300.89L256.65 308.52L256.31 308.87L255.97 309.21L255.61 309.54L255.24 309.87L254.86 310.19L254.47 310.5L254.07 310.8L253.65 311.09L253.22 311.37L252.79 311.65L252.34 311.91L251.88 312.17L251.41 312.41L250.92 312.65L250.43 312.87L249.93 313.08L249.42 313.29L248.89 313.48L248.36 313.66L247.81 313.83L247.26 313.99L246.7 314.14L246.12 314.28L245.54 314.4L244.95 314.51L244.35 314.61L243.74 314.7L243.12 314.77L242.49 314.83L241.85 314.88L241.21 314.92L240.55 314.94L239.89 314.94L238.83 314.92L237.78 314.86L236.76 314.76L235.76 314.61L234.79 314.43L233.84 314.2L232.92 313.94L232.02 313.64L231.15 313.31L230.31 312.93L229.5 312.52L228.71 312.08L227.96 311.6L227.23 311.09L226.54 310.54L225.88 309.96L225.25 309.35L224.65 308.71L224.09 308.04L223.56 307.33L223.07 306.6L222.61 305.84L222.19 305.05L221.8 304.24L221.45 303.39L221.15 302.52L220.88 301.63L220.65 300.71L220.46 299.77L220.31 298.8L220.2 297.81L220.14 296.8L220.11 295.77L220.14 294.71L220.2 293.67L220.31 292.66L220.45 291.66L220.64 290.69L220.87 289.75L221.13 288.83L221.44 287.93L221.78 287.06L222.16 286.21L222.57 285.4L223.02 284.61L223.51 283.85L224.03 283.12L224.58 282.42L225.16 281.75L225.78 281.12L226.43 280.52L227.1 279.95L227.81 279.41L228.55 278.91L229.31 278.45L230.1 278.02L230.92 277.63L231.77 277.27L232.64 276.96L233.53 276.69L234.45 276.45L235.39 276.26L236.35 276.11L237.34 276L238.35 275.93L239.37 275.91L240.38 275.93L241.37 276ZM236.53 287.77L235.42 288.63L234.54 289.82L233.88 291.38L234.93 291.37L237.48 291.37L240.62 291.37L243.44 291.36L245.03 291.36L244.33 289.81L243.43 288.62L242.3 287.77L240.97 287.26L239.42 287.1L237.87 287.27L236.53 287.77Z" id="h17Rs3IjD5"></path><path d="M276.46 314.01L263.15 314.01L263.15 260.16L276.46 260.16L276.46 314.01Z" id="aaH2LWKSX"></path><path d="M299.14 275.96L299.59 275.99L300.04 276.04L300.47 276.09L300.9 276.16L301.32 276.24L301.72 276.33L302.12 276.43L302.51 276.54L302.89 276.66L303.26 276.79L303.62 276.93L303.97 277.08L304.31 277.23L304.65 277.4L304.97 277.58L305.29 277.76L305.6 277.96L305.9 278.16L306.2 278.37L306.48 278.58L306.76 278.8L307.03 279.03L307.29 279.27L307.54 279.51L307.79 279.76L308.03 280.02L308.26 280.28L308.26 276.95L321.05 276.95L321.05 314.01L308.26 314.01L308.26 310.75L308.03 311.01L307.79 311.25L307.54 311.5L307.28 311.73L307.02 311.96L306.75 312.18L306.47 312.4L306.19 312.61L305.89 312.81L305.59 313.01L305.28 313.2L304.96 313.38L304.63 313.55L304.3 313.71L303.96 313.86L303.6 314.01L303.24 314.15L302.87 314.27L302.49 314.39L302.1 314.5L301.7 314.6L301.3 314.68L300.88 314.76L300.45 314.82L300.01 314.88L299.57 314.92L299.11 314.95L298.64 314.97L298.16 314.97L297.15 314.94L296.16 314.85L295.19 314.7L294.24 314.49L293.32 314.23L292.43 313.91L291.56 313.53L290.72 313.11L289.91 312.64L289.13 312.12L288.38 311.55L287.66 310.94L286.98 310.29L286.33 309.6L285.71 308.86L285.13 308.09L284.59 307.29L284.08 306.45L283.62 305.57L283.19 304.67L282.8 303.74L282.46 302.78L282.16 301.79L281.9 300.78L281.68 299.75L281.52 298.69L281.4 297.62L281.32 296.53L281.3 295.42L281.32 294.31L281.4 293.22L281.52 292.15L281.68 291.1L281.9 290.06L282.16 289.06L282.46 288.07L282.8 287.11L283.19 286.18L283.62 285.28L284.08 284.41L284.59 283.58L285.13 282.77L285.71 282.01L286.33 281.28L286.98 280.59L287.67 279.94L288.39 279.33L289.14 278.77L289.92 278.26L290.73 277.79L291.58 277.37L292.45 277L293.34 276.68L294.27 276.42L295.21 276.21L296.19 276.06L297.18 275.97L298.2 275.94L298.68 275.94L299.14 275.96ZM298.99 288.83L297.86 289.46L296.89 290.31L296.11 291.36L295.52 292.58L295.15 293.94L295.02 295.43L295.16 296.93L295.53 298.3L296.12 299.52L296.9 300.56L297.87 301.41L298.99 302.05L300.25 302.44L301.63 302.58L303 302.45L304.26 302.05L305.38 301.42L306.35 300.57L307.13 299.53L307.72 298.31L308.08 296.94L308.21 295.43L308.08 293.93L307.72 292.56L307.13 291.34L306.35 290.3L305.38 289.45L304.26 288.82L303 288.43L301.63 288.29L300.25 288.43L298.99 288.83Z" id="fXxQWsVY4"></path><path d="M363.52 314.01L350.2 314.01C350.2 302.04 350.2 295.4 350.2 294.07C350.2 290.35 348.45 288.38 345.53 288.38C342.88 288.38 340.89 290.14 340.89 294.14C340.89 295.47 340.89 302.09 340.89 314.01L327.59 314.01L327.59 276.94L340.28 276.94C340.28 279.23 340.28 280.51 340.28 280.76C342.38 277.54 345.66 275.93 350.3 275.93C357.94 275.93 363.52 281.35 363.52 289.88C363.52 293.09 363.52 301.14 363.52 314.01Z" id="ivFvyGbwo"></path><path d="M394.1 291.79C392.52 289.43 390.69 288.31 388.07 288.31C384.82 288.31 381.79 290.81 381.79 295.45C381.79 300.08 384.71 302.6 387.96 302.6C390.46 302.6 392.48 301.47 394.1 299.07C395.19 299.77 403.95 305.37 405.05 306.07C401.42 311.75 395.11 315.13 388.38 314.99C376.49 314.99 368.18 306.91 368.18 295.47C368.18 284.03 376.52 275.95 388.38 275.95C395.11 275.8 401.43 279.2 405.01 284.91C402.83 286.28 395.19 291.1 394.1 291.79Z" id="h1znLAYtEf"></path><path d="M427.74 276L428.71 276.11L429.66 276.26L430.58 276.45L431.48 276.68L432.36 276.95L433.21 277.26L434.04 277.6L434.84 277.99L435.62 278.41L436.37 278.86L437.09 279.35L437.78 279.88L438.45 280.44L439.09 281.03L439.69 281.65L440.26 282.31L440.81 283L441.32 283.71L441.79 284.46L442.24 285.23L442.64 286.03L443.02 286.86L443.35 287.72L443.65 288.6L443.92 289.51L444.14 290.44L444.33 291.39L444.47 292.37L444.58 293.37L444.65 294.39L444.67 295.43L444.67 295.55L444.67 295.67L444.67 295.8L444.67 295.92L444.67 296.04L444.67 296.16L444.66 296.28L444.66 296.4L444.66 296.52L444.65 296.64L444.65 296.76L444.64 296.88L444.63 297L444.63 297.12L444.62 297.24L444.61 297.36L444.61 297.48L444.6 297.6L444.59 297.72L444.58 297.84L444.57 297.96L444.56 298.08L444.55 298.2L444.54 298.32L444.53 298.44L444.51 298.56L444.5 298.68L444.49 298.8L444.47 298.92L444.46 299.04L444.44 299.16L444.43 299.28L444.41 299.4L420.22 299.4L420.31 299.67L420.4 299.92L420.5 300.17L420.61 300.42L420.72 300.65L420.84 300.87L420.97 301.09L421.11 301.3L421.25 301.5L421.41 301.69L421.57 301.88L421.73 302.05L421.91 302.22L422.09 302.38L422.28 302.53L422.47 302.68L422.67 302.81L422.88 302.94L423.1 303.06L423.33 303.17L423.56 303.27L423.8 303.36L424.04 303.45L424.3 303.53L424.56 303.6L424.83 303.66L425.1 303.71L425.39 303.76L425.68 303.79L425.97 303.82L426.28 303.84L426.59 303.85L426.91 303.86L427.15 303.85L427.38 303.84L427.62 303.82L427.86 303.8L428.09 303.77L428.32 303.73L428.56 303.69L428.79 303.65L429.02 303.6L429.25 303.54L429.47 303.48L429.7 303.41L429.92 303.34L430.15 303.27L430.37 303.18L430.58 303.1L430.8 303.01L431.01 302.91L431.22 302.81L431.43 302.7L431.64 302.59L431.84 302.47L432.05 302.35L432.24 302.23L432.44 302.1L432.63 301.96L432.82 301.82L433.01 301.68L433.2 301.53L433.38 301.37L433.55 301.22L433.73 301.05L433.9 300.89L443.02 308.52L442.69 308.87L442.35 309.21L441.99 309.54L441.62 309.87L441.24 310.19L440.85 310.5L440.44 310.8L440.03 311.09L439.6 311.37L439.16 311.65L438.71 311.91L438.25 312.17L437.78 312.41L437.3 312.65L436.81 312.87L436.3 313.08L435.79 313.29L435.27 313.48L434.73 313.66L434.19 313.83L433.64 313.99L433.07 314.14L432.5 314.28L431.92 314.4L431.33 314.51L430.72 314.61L430.11 314.7L429.5 314.77L428.87 314.83L428.23 314.88L427.58 314.92L426.93 314.94L426.27 314.94L425.2 314.92L424.15 314.86L423.13 314.76L422.13 314.61L421.15 314.43L420.2 314.2L419.28 313.94L418.38 313.64L417.51 313.31L416.67 312.93L415.86 312.52L415.07 312.08L414.32 311.6L413.59 311.09L412.9 310.54L412.24 309.96L411.61 309.35L411.02 308.71L410.45 308.04L409.93 307.33L409.43 306.6L408.98 305.84L408.56 305.05L408.17 304.24L407.83 303.39L407.52 302.52L407.25 301.63L407.02 300.71L406.83 299.77L406.68 298.8L406.58 297.81L406.51 296.8L406.49 295.77L406.51 294.71L406.58 293.67L406.68 292.66L406.83 291.66L407.02 290.69L407.24 289.75L407.51 288.83L407.81 287.93L408.16 287.06L408.53 286.21L408.95 285.4L409.4 284.61L409.88 283.85L410.4 283.12L410.95 282.42L411.54 281.75L412.15 281.12L412.8 280.52L413.48 279.95L414.19 279.41L414.92 278.91L415.69 278.45L416.48 278.02L417.3 277.63L418.14 277.27L419.01 276.96L419.91 276.69L420.82 276.45L421.76 276.26L422.73 276.11L423.71 276L424.72 275.93L425.75 275.91L426.76 275.93L427.74 276ZM422.9 287.77L421.78 288.63L420.9 289.82L420.26 291.38L421.31 291.37L423.86 291.37L427 291.37L429.81 291.36L431.4 291.36L430.71 289.81L429.81 288.62L428.68 287.77L427.35 287.26L425.79 287.1L424.24 287.27L422.9 287.77Z" id="i36RjsidOc"></path><path d="M178.63 324.1L179.81 324.64L180.87 325.36L181.79 326.25L182.54 327.29L183.12 328.45L183.49 329.72L183.63 331.06L183.63 331.09L183.63 331.11L183.63 331.14L183.63 331.16L183.63 331.19L183.63 331.21L183.63 331.24L183.63 331.26L183.63 331.29L183.51 332.66L183.15 333.95L182.59 335.14L181.84 336.21L180.92 337.13L179.85 337.88L178.67 338.45L177.38 338.8L176 338.93L174.63 338.81L173.34 338.45L172.15 337.89L171.09 337.14L170.17 336.22L169.41 335.15L168.85 333.97L168.49 332.68L168.37 331.3L168.49 329.93L168.84 328.64L169.4 327.45L170.16 326.39L171.07 325.47L172.14 324.71L173.33 324.15L174.62 323.79L175.99 323.67L176 323.67L177.36 323.77L178.63 324.1Z" id="iroH3HvF"></path><path d="M225.12 379.19L211.84 379.19C211.84 367.23 211.84 360.59 211.84 359.26C211.84 355.55 210.08 353.58 207.16 353.58C204.5 353.58 202.53 355.33 202.53 359.34C202.53 360.66 202.53 367.28 202.53 379.19L189.21 379.19L189.21 342.14L201.89 342.14C201.89 344.43 201.89 345.7 201.89 345.96C203.98 342.74 207.28 341.13 211.91 341.13C219.58 341.13 225.12 346.54 225.12 355.07C225.12 358.29 225.12 366.33 225.12 379.19Z" id="c1UUyNPz8R"></path><path d="M257.18 353.88L247.76 353.88L247.76 379.19L234.45 379.19L234.45 353.88L228.47 353.88L228.47 342.14L234.45 342.14C234.45 341.25 234.45 340.75 234.45 340.65C234.45 329.63 240.62 324.35 249.22 324.35C255.61 324.35 259.63 326.33 262.6 328.73C261.99 329.68 257.15 337.27 256.54 338.22C254.92 337.29 253.1 336.78 251.23 336.74C248.87 336.74 247.75 337.97 247.75 341C247.75 341.08 247.75 341.45 247.75 342.12L257.17 342.12L257.18 353.88Z" id="cvOedcw2P"></path><path d="M282.26 341.28L283.57 341.47L284.85 341.74L286.09 342.08L287.3 342.48L288.45 342.95L289.57 343.49L290.64 344.09L291.66 344.76L292.63 345.48L293.55 346.25L294.41 347.09L295.21 347.97L295.96 348.91L296.65 349.9L297.27 350.93L297.82 352.01L298.31 353.13L298.73 354.29L299.08 355.49L299.36 356.73L299.56 358L299.68 359.31L299.72 360.64L299.68 361.98L299.56 363.29L299.36 364.56L299.08 365.8L298.73 367L298.31 368.16L297.82 369.28L297.27 370.36L296.65 371.39L295.96 372.38L295.21 373.31L294.41 374.2L293.55 375.03L292.63 375.81L291.66 376.53L290.64 377.2L289.57 377.8L288.45 378.33L287.3 378.81L286.09 379.21L284.85 379.55L283.57 379.81L282.26 380.01L280.91 380.12L279.53 380.16L278.15 380.12L276.8 380.01L275.49 379.81L274.21 379.55L272.96 379.21L271.76 378.81L270.6 378.33L269.49 377.8L268.42 377.2L267.4 376.53L266.43 375.81L265.51 375.03L264.65 374.2L263.84 373.31L263.1 372.38L262.41 371.39L261.79 370.36L261.23 369.28L260.74 368.16L260.32 367L259.97 365.8L259.7 364.56L259.5 363.29L259.38 361.98L259.34 360.64L259.38 359.31L259.5 358L259.7 356.73L259.97 355.49L260.32 354.29L260.74 353.13L261.23 352.01L261.79 350.93L262.41 349.9L263.1 348.91L263.84 347.97L264.65 347.09L265.51 346.25L266.43 345.48L267.4 344.76L268.42 344.09L269.49 343.49L270.6 342.95L271.76 342.48L272.96 342.08L274.21 341.74L275.49 341.47L276.8 341.28L278.15 341.17L279.53 341.13L280.91 341.17L282.26 341.28ZM276.91 354.04L275.79 354.67L274.82 355.52L274.03 356.56L273.44 357.78L273.07 359.15L272.95 360.64L273.08 362.14L273.45 363.51L274.04 364.73L274.83 365.77L275.79 366.62L276.91 367.25L278.17 367.65L279.55 367.78L280.93 367.65L282.19 367.26L283.31 366.62L284.27 365.78L285.05 364.74L285.64 363.52L286 362.15L286.13 360.64L286 359.14L285.64 357.77L285.05 356.55L284.27 355.51L283.31 354.66L282.19 354.03L280.93 353.64L279.55 353.5L278.17 353.64L276.91 354.04Z" id="g1k05ifjOG"></path><path d="M312.05 380.16C307.29 380.19 303.41 376.36 303.37 371.6C303.34 366.84 307.17 362.96 311.93 362.93C311.97 362.93 312.01 362.93 312.05 362.93C316.73 363.04 320.5 366.81 320.61 371.48C320.64 376.24 316.81 380.13 312.05 380.16Z" id="e2gX5M2JPW"></path><path d="M349.94 353.88L340.52 353.88L340.52 379.19L327.21 379.19L327.21 353.88L321.26 353.88L321.26 342.14L327.21 342.14C327.21 341.25 327.21 340.75 327.21 340.65C327.21 329.63 333.38 324.35 341.98 324.35C348.37 324.35 352.38 326.33 355.35 328.73C354.74 329.68 349.89 337.27 349.29 338.22C347.67 337.29 345.85 336.78 343.98 336.74C341.63 336.74 340.51 337.97 340.51 341C340.51 341.08 340.51 341.45 340.51 342.12L349.94 342.12L349.94 353.88Z" id="a1daaEQTbf"></path><path d="M379.66 354.81C377.76 354.28 375.8 353.99 373.82 353.95C370.11 353.95 367.88 355.26 367.88 359.34C367.88 360.66 367.88 367.28 367.88 379.19L354.5 379.19L354.5 342.14L367.22 342.14C367.22 344.37 367.22 345.6 367.22 345.85C369.27 342.56 372.53 341.1 377.05 341.1C378.18 341.12 379.3 341.25 380.4 341.5C380.26 344.16 379.74 353.48 379.66 354.81Z" id="d7lCzSfL4"></path><path d="M152.27 351.66C152.27 351.66 152.27 351.66 152.27 351.66C152.27 360.87 152.27 365.98 152.27 367C152.27 367 152.27 367 152.27 367C124.44 367 108.98 367 105.89 367C105.89 367 105.89 367 105.89 367C105.89 357.8 105.89 352.68 105.89 351.66C105.89 351.66 105.89 351.66 105.89 351.66C133.72 351.66 149.18 351.66 152.27 351.66Z" id="a2uiNdWPQT"></path><path d="M433.99 419.9C448.54 403 459.73 385.11 465.5 369.53C471.08 354.42 469.76 346.22 466.93 343.78C464.1 341.34 455.79 341.24 441.67 348.98C427.11 356.99 411.07 370.7 396.51 387.61C395.35 386.62 386.03 378.62 384.86 377.62C400.61 359.37 418.15 344.47 434.28 335.55C457.8 322.63 470.46 326.57 476.94 332.16C483.42 337.75 489.19 349.68 479.91 374.85C473.51 392.14 461.33 411.69 445.61 429.91C443.28 427.91 435.15 420.9 433.99 419.9Z" id="d2RnNG9MFb"></path><path d="M433.99 419.9C475.78 371.4 538 332.6 588.77 323.37C589.05 324.89 591.24 337.01 591.51 338.53C543.92 347.14 485.28 383.9 445.61 429.91C443.28 427.91 435.15 420.9 433.99 419.9Z" id="b8ek2xCJk"></path><path d="M183.63 379.19C183.63 379.19 183.63 379.19 183.63 379.19C174.69 379.19 169.73 379.19 168.73 379.19C168.73 379.19 168.73 379.19 168.73 379.19C168.73 357 168.73 344.67 168.73 342.2C168.73 342.2 168.73 342.2 168.73 342.2C177.67 342.2 182.63 342.2 183.63 342.2C183.63 342.2 183.63 342.2 183.63 342.2C183.63 364.39 183.63 376.72 183.63 379.19Z" id="m1aR29lu8T"></path></defs><g><g><use xlink:href="#ex6nQABxb" opacity="1" fill="#ffffff" fill-opacity="1"></use><g><use xlink:href="#ex6nQABxb" opacity="1" fill-opacity="0" stroke="#000000" stroke-width="1" stroke-opacity="0"></use></g></g><g><use xlink:href="#aGW5SflPr" opacity="1" fill="#ffffff" fill-opacity="1"></use><g><use xlink:href="#aGW5SflPr" opacity="1" fill-opacity="0" stroke="#000000" stroke-width="1" stroke-opacity="0"></use></g></g><g><use xlink:href="#c4I034Nfsx" opacity="1" fill="#ffffff" fill-opacity="1"></use><g><use xlink:href="#c4I034Nfsx" opacity="1" fill-opacity="0" stroke="#000000" stroke-width="1" stroke-opacity="0"></use></g></g><g><use xlink:href="#h17Rs3IjD5" opacity="1" fill="#ffffff" fill-opacity="1"></use><g><use xlink:href="#h17Rs3IjD5" opacity="1" fill-opacity="0" stroke="#000000" stroke-width="1" stroke-opacity="0"></use></g></g><g><use xlink:href="#aaH2LWKSX" opacity="1" fill="#ffffff" fill-opacity="1"></use><g><use xlink:href="#aaH2LWKSX" opacity="1" fill-opacity="0" stroke="#000000" stroke-width="1" stroke-opacity="0"></use></g></g><g><use xlink:href="#fXxQWsVY4" opacity="1" fill="#ffffff" fill-opacity="1"></use><g><use xlink:href="#fXxQWsVY4" opacity="1" fill-opacity="0" stroke="#000000" stroke-width="1" stroke-opacity="0"></use></g></g><g><use xlink:href="#ivFvyGbwo" opacity="1" fill="#ffffff" fill-opacity="1"></use><g><use xlink:href="#ivFvyGbwo" opacity="1" fill-opacity="0" stroke="#000000" stroke-width="1" stroke-opacity="0"></use></g></g><g><use xlink:href="#h1znLAYtEf" opacity="1" fill="#ffffff" fill-opacity="1"></use><g><use xlink:href="#h1znLAYtEf" opacity="1" fill-opacity="0" stroke="#000000" stroke-width="1" stroke-opacity="0"></use></g></g><g><use xlink:href="#i36RjsidOc" opacity="1" fill="#ffffff" fill-opacity="1"></use><g><use xlink:href="#i36RjsidOc" opacity="1" fill-opacity="0" stroke="#000000" stroke-width="1" stroke-opacity="0"></use></g></g><g><use xlink:href="#iroH3HvF" opacity="1" fill="#FFF" fill-opacity="1"></use><g><use xlink:href="#iroH3HvF" opacity="1" fill-opacity="0" stroke="#000000" stroke-width="1" stroke-opacity="0"></use></g></g><g><use xlink:href="#c1UUyNPz8R" opacity="1" fill="#FFF" fill-opacity="1"></use><g><use xlink:href="#c1UUyNPz8R" opacity="1" fill-opacity="0" stroke="#000000" stroke-width="1" stroke-opacity="0"></use></g></g><g><use xlink:href="#cvOedcw2P" opacity="1" fill="#FFF" fill-opacity="1"></use><g><use xlink:href="#cvOedcw2P" opacity="1" fill-opacity="0" stroke="#000000" stroke-width="1" stroke-opacity="0"></use></g></g><g><use xlink:href="#g1k05ifjOG" opacity="1" fill="#FFF" fill-opacity="1"></use><g><use xlink:href="#g1k05ifjOG" opacity="1" fill-opacity="0" stroke="#000000" stroke-width="1" stroke-opacity="0"></use></g></g><g><use xlink:href="#e2gX5M2JPW" opacity="1" fill="#ffffff" fill-opacity="1"></use><g><use xlink:href="#e2gX5M2JPW" opacity="1" fill-opacity="0" stroke="#000000" stroke-width="1" stroke-opacity="0"></use></g></g><g><use xlink:href="#a1daaEQTbf" opacity="1" fill="#ffffff" fill-opacity="1"></use><g><use xlink:href="#a1daaEQTbf" opacity="1" fill-opacity="0" stroke="#000000" stroke-width="1" stroke-opacity="0"></use></g></g><g><use xlink:href="#d7lCzSfL4" opacity="1" fill="#ffffff" fill-opacity="1"></use><g><use xlink:href="#d7lCzSfL4" opacity="1" fill-opacity="0" stroke="#000000" stroke-width="1" stroke-opacity="0"></use></g></g><g><use xlink:href="#a2uiNdWPQT" opacity="1" fill="#FFF" fill-opacity="1"></use><g><use xlink:href="#a2uiNdWPQT" opacity="1" fill-opacity="0" stroke="#000000" stroke-width="1" stroke-opacity="0"></use></g></g><g><use xlink:href="#d2RnNG9MFb" opacity="1" fill="#FFF" fill-opacity="1"></use><g><use xlink:href="#d2RnNG9MFb" opacity="1" fill-opacity="0" stroke="#000000" stroke-width="1" stroke-opacity="0"></use></g></g><g><use xlink:href="#b8ek2xCJk" opacity="1" fill="#FFF" fill-opacity="1"></use><g><use xlink:href="#b8ek2xCJk" opacity="1" fill-opacity="0" stroke="#000000" stroke-width="1" stroke-opacity="0"></use></g></g><g><use xlink:href="#m1aR29lu8T" opacity="1" fill="#FFF" fill-opacity="1"></use><g><use xlink:href="#m1aR29lu8T" opacity="1" fill-opacity="0" stroke="#000000" stroke-width="1" stroke-opacity="0"></use></g></g></g></svg>
