<?xml version="1.0" standalone="no"?><svg xmlns="http://www.w3.org/2000/svg" viewBox="0 0 1440 320"><path fill="#212529" fill-opacity="1" d="M0,288L20,272C40,256,80,224,120,192C160,160,200,128,240,117.3C280,107,320,117,360,122.7C400,128,440,128,480,133.3C520,139,560,149,600,170.7C640,192,680,224,720,240C760,256,800,256,840,240C880,224,920,192,960,160C1000,128,1040,96,1080,80C1120,64,1160,64,1200,69.3C1240,75,1280,85,1320,90.7C1360,96,1400,96,1420,96L1440,96L1440,0L1420,0C1400,0,1360,0,1320,0C1280,0,1240,0,1200,0C1160,0,1120,0,1080,0C1040,0,1000,0,960,0C920,0,880,0,840,0C800,0,760,0,720,0C680,0,640,0,600,0C560,0,520,0,480,0C440,0,400,0,360,0C320,0,280,0,240,0C200,0,160,0,120,0C80,0,40,0,20,0L0,0Z"></path></svg>